# xmcd
#
# Track frame offsets:
#	150
#	34452
#	71892
#
# Disc length: 1304 seconds
# Revision: 0
# Processed by: cddbd v1.5.2PL0 Copyright (c) Steve Scherf et al.
# Submitted via: dBpowerAMP V12.0
#
DISCID=2a051603
DTITLE=Phats and Small - Harvest For The World
DYEAR=2000
DGENRE=House
TTITLE0=Harvest For The World [Vocal Mix]
TTITLE1=Harvest For The World [Mutant Disco Mix]
TTITLE2=Brighton Beach
EXTD=
EXTT0=
EXTT1=
EXTT2=
PLAYORDER=
